<svg width="13" height="12" viewBox="0 0 13 12" fill="none" xmlns="http://www.w3.org/2000/svg">
<path d="M11.1936 4.01851C11.1936 4.3382 10.932 4.59977 10.6123 4.59977H2.08712C1.76743 4.59977 1.50586 4.3382 1.50586 4.01851V4.01366C1.50586 2.90442 2.40198 2.0083 3.51122 2.0083H9.1834C10.2926 2.0083 11.1936 2.90926 11.1936 4.01851Z" fill="#0B80F3"/>
<path d="M1.50586 5.90744V8.33422C1.50586 9.44346 2.40198 10.3396 3.51122 10.3396H9.1834C10.2926 10.3396 11.1936 9.43862 11.1936 8.32937V5.90744C11.1936 5.58774 10.932 5.32617 10.6123 5.32617H2.08712C1.76743 5.32617 1.50586 5.58774 1.50586 5.90744ZM4.41218 8.71688H3.44341C3.24481 8.71688 3.08012 8.55219 3.08012 8.35359C3.08012 8.15499 3.24481 7.9903 3.44341 7.9903H4.41218C4.61078 7.9903 4.77547 8.15499 4.77547 8.35359C4.77547 8.55219 4.61078 8.71688 4.41218 8.71688ZM7.5607 8.71688H5.62315C5.42455 8.71688 5.25986 8.55219 5.25986 8.35359C5.25986 8.15499 5.42455 7.9903 5.62315 7.9903H7.5607C7.7593 7.9903 7.92399 8.15499 7.92399 8.35359C7.92399 8.55219 7.7593 8.71688 7.5607 8.71688Z" fill="#0B80F3"/>
</svg>
