<svg width="125" height="126" viewBox="0 0 125 126" fill="none" xmlns="http://www.w3.org/2000/svg">
<ellipse cx="62.5" cy="63" rx="62.5" ry="63" fill="#142B43"/>
<circle cx="63" cy="63" r="41" fill="#17314B"/>
<path d="M62.6511 39.8864C62.0469 39.8932 61.47 40.1402 61.0468 40.5731C60.6236 41.006 60.3885 41.5896 60.3931 42.1962V60.5279C60.3931 61.1359 60.6337 61.719 61.062 62.1489C61.4903 62.5789 62.0713 62.8204 62.677 62.8204C63.2827 62.8204 63.8637 62.5789 64.292 62.1489C64.7203 61.719 64.9609 61.1359 64.9609 60.5279V42.1962C64.9632 41.8915 64.905 41.5893 64.7896 41.3075C64.6742 41.0256 64.5041 40.7697 64.289 40.5547C64.0739 40.3396 63.8183 40.1697 63.5371 40.055C63.2559 39.9402 62.9547 39.8829 62.6511 39.8864ZM75.9582 44.4715C75.8836 44.4678 75.8088 44.4678 75.7341 44.4715C75.2818 44.5092 74.851 44.6814 74.4966 44.966C74.1422 45.2506 73.8804 45.6348 73.7444 46.0694C73.6085 46.5041 73.6046 46.9695 73.7333 47.4064C73.8621 47.8433 74.1176 48.2317 74.4672 48.5222C78.4231 51.8921 80.9225 56.9081 80.9225 62.536C80.9225 72.7059 72.7866 80.9022 62.6856 80.9022C60.2826 80.8977 57.904 80.4192 55.6861 79.4941C53.4682 78.569 51.4546 77.2154 49.7606 75.511C48.0666 73.8066 46.7254 71.7847 45.8139 69.5612C44.9024 67.3377 44.4385 64.9563 44.4487 62.5532C44.4487 56.9512 46.9136 51.9696 50.8265 48.5911C51.0699 48.4007 51.2723 48.1627 51.4216 47.8916C51.5708 47.6204 51.6638 47.3218 51.6948 47.0135C51.7259 46.7053 51.6944 46.394 51.6022 46.0984C51.5101 45.8027 51.3592 45.5289 51.1587 45.2934C50.9581 45.0579 50.7122 44.8657 50.4356 44.7283C50.159 44.5909 49.8575 44.5111 49.5494 44.4939C49.2412 44.4767 48.9328 44.5224 48.6428 44.6281C48.3527 44.7339 48.087 44.8975 47.8617 45.1092C45.3558 47.2686 43.3455 49.9435 41.9681 52.9511C40.5908 55.9586 39.8788 59.228 39.8809 62.536C39.874 68.6013 42.2709 74.4222 46.5468 78.7239C50.8227 83.0256 56.629 85.4576 62.6942 85.4873C68.7586 85.4599 74.5645 83.0281 78.8381 78.7254C83.1118 74.4226 85.5041 68.6004 85.4904 62.536C85.4904 55.5377 82.3618 49.2462 77.4234 45.0403C77.0174 44.6827 76.4983 44.4812 75.9582 44.4715Z" fill="white"/>
</svg>
