<svg width="137" height="138" viewBox="0 0 137 138" fill="none" xmlns="http://www.w3.org/2000/svg">
<g filter="url(#filter0_d_6800_13077)">
<ellipse cx="68.7457" cy="64.9567" rx="48.7457" ry="48.9567" fill="white"/>
</g>
<path d="M68.6511 41.8864C68.0469 41.8932 67.47 42.1402 67.0468 42.5731C66.6236 43.006 66.3885 43.5896 66.3931 44.1962V62.5279C66.3931 63.1359 66.6337 63.719 67.062 64.1489C67.4903 64.5789 68.0713 64.8204 68.677 64.8204C69.2827 64.8204 69.8637 64.5789 70.292 64.1489C70.7203 63.719 70.9609 63.1359 70.9609 62.5279V44.1962C70.9632 43.8915 70.905 43.5893 70.7896 43.3075C70.6742 43.0256 70.5041 42.7697 70.289 42.5547C70.0739 42.3396 69.8183 42.1697 69.5371 42.055C69.2559 41.9402 68.9547 41.8829 68.6511 41.8864ZM81.9582 46.4715C81.8836 46.4678 81.8088 46.4678 81.7341 46.4715C81.2818 46.5092 80.851 46.6814 80.4966 46.966C80.1422 47.2506 79.8804 47.6348 79.7444 48.0694C79.6085 48.5041 79.6046 48.9695 79.7333 49.4064C79.8621 49.8433 80.1176 50.2317 80.4672 50.5222C84.4231 53.8921 86.9225 58.9081 86.9225 64.536C86.9225 74.7059 78.7866 82.9022 68.6856 82.9022C66.2826 82.8977 63.904 82.4192 61.6861 81.4941C59.4682 80.569 57.4546 79.2154 55.7606 77.511C54.0666 75.8066 52.7254 73.7847 51.8139 71.5612C50.9024 69.3377 50.4385 66.9563 50.4487 64.5532C50.4487 58.9512 52.9136 53.9696 56.8265 50.5911C57.0699 50.4007 57.2723 50.1627 57.4216 49.8916C57.5708 49.6204 57.6638 49.3218 57.6948 49.0135C57.7259 48.7053 57.6944 48.394 57.6022 48.0984C57.5101 47.8027 57.3592 47.5289 57.1587 47.2934C56.9581 47.0579 56.7122 46.8657 56.4356 46.7283C56.159 46.5909 55.8575 46.5111 55.5494 46.4939C55.2412 46.4767 54.9328 46.5224 54.6428 46.6281C54.3527 46.7339 54.087 46.8975 53.8617 47.1092C51.3558 49.2686 49.3455 51.9435 47.9681 54.9511C46.5908 57.9586 45.8788 61.228 45.8809 64.536C45.874 70.6013 48.2709 76.4222 52.5468 80.7239C56.8227 85.0256 62.629 87.4576 68.6942 87.4873C74.7586 87.4599 80.5645 85.0281 84.8381 80.7254C89.1118 76.4226 91.5041 70.6004 91.4904 64.536C91.4904 57.5377 88.3618 51.2462 83.4234 47.0403C83.0174 46.6827 82.4983 46.4812 81.9582 46.4715Z" fill="#082A4E"/>
<defs>
<filter id="filter0_d_6800_13077" x="0.6" y="0.6" width="136.292" height="136.714" filterUnits="userSpaceOnUse" color-interpolation-filters="sRGB">
<feFlood flood-opacity="0" result="BackgroundImageFix"/>
<feColorMatrix in="SourceAlpha" type="matrix" values="0 0 0 0 0 0 0 0 0 0 0 0 0 0 0 0 0 0 127 0" result="hardAlpha"/>
<feOffset dy="4"/>
<feGaussianBlur stdDeviation="9.7"/>
<feComposite in2="hardAlpha" operator="out"/>
<feColorMatrix type="matrix" values="0 0 0 0 0 0 0 0 0 0 0 0 0 0 0 0 0 0 0.25 0"/>
<feBlend mode="normal" in2="BackgroundImageFix" result="effect1_dropShadow_6800_13077"/>
<feBlend mode="normal" in="SourceGraphic" in2="effect1_dropShadow_6800_13077" result="shape"/>
</filter>
</defs>
</svg>
