<svg width="23" height="23" viewBox="0 0 23 23" fill="none" xmlns="http://www.w3.org/2000/svg">
<path d="M21.8673 3.73301H1.46732C1.16674 3.73301 0.878471 3.85241 0.66593 4.06495C0.453389 4.27749 0.333984 4.56576 0.333984 4.86634C0.333984 5.16692 0.453389 5.45519 0.66593 5.66773C0.878471 5.88027 1.16674 5.99967 1.46732 5.99967H3.73398V19.5997C3.73398 20.5014 4.0922 21.3662 4.72982 22.0038C5.36744 22.6415 6.23225 22.9997 7.13398 22.9997H16.2006C17.1024 22.9997 17.9672 22.6415 18.6048 22.0038C19.2424 21.3662 19.6006 20.5014 19.6006 19.5997V5.99967H21.8673C22.1679 5.99967 22.4562 5.88027 22.6687 5.66773C22.8812 5.45519 23.0006 5.16692 23.0006 4.86634C23.0006 4.56576 22.8812 4.27749 22.6687 4.06495C22.4562 3.85241 22.1679 3.73301 21.8673 3.73301ZM10.534 16.1997C10.534 16.5003 10.4146 16.7885 10.202 17.0011C9.9895 17.2136 9.70123 17.333 9.40065 17.333C9.10007 17.333 8.8118 17.2136 8.59926 17.0011C8.38672 16.7885 8.26732 16.5003 8.26732 16.1997V10.533C8.26732 10.2324 8.38672 9.94416 8.59926 9.73162C8.8118 9.51908 9.10007 9.39967 9.40065 9.39967C9.70123 9.39967 9.9895 9.51908 10.202 9.73162C10.4146 9.94416 10.534 10.2324 10.534 10.533V16.1997ZM15.0673 16.1997C15.0673 16.5003 14.9479 16.7885 14.7354 17.0011C14.5228 17.2136 14.2346 17.333 13.934 17.333C13.6334 17.333 13.3451 17.2136 13.1326 17.0011C12.9201 16.7885 12.8006 16.5003 12.8006 16.1997V10.533C12.8006 10.2324 12.9201 9.94416 13.1326 9.73162C13.3451 9.51908 13.6334 9.39967 13.934 9.39967C14.2346 9.39967 14.5228 9.51908 14.7354 9.73162C14.9479 9.94416 15.0673 10.2324 15.0673 10.533V16.1997ZM9.40065 2.59967H13.934C14.2346 2.59967 14.5228 2.48027 14.7354 2.26773C14.9479 2.05519 15.0673 1.76692 15.0673 1.46634C15.0673 1.16576 14.9479 0.877495 14.7354 0.664953C14.5228 0.452412 14.2346 0.333008 13.934 0.333008H9.40065C9.10007 0.333008 8.8118 0.452412 8.59926 0.664953C8.38672 0.877495 8.26732 1.16576 8.26732 1.46634C8.26732 1.76692 8.38672 2.05519 8.59926 2.26773C8.8118 2.48027 9.10007 2.59967 9.40065 2.59967Z" fill="white"/>
</svg>
