<svg width="24" height="24" viewBox="0 0 24 24" fill="none" xmlns="http://www.w3.org/2000/svg">
<circle cx="12" cy="12" r="10.35" stroke="black" stroke-width="1.3"/>
<path d="M11.6916 11.3889C10.5766 11.0611 10.2181 10.7222 10.2181 10.1944C10.2181 9.58889 10.7141 9.16667 11.5442 9.16667C12.4185 9.16667 12.7426 9.63889 12.7721 10.3333H13.8576C13.8232 9.37778 13.3075 8.5 12.2809 8.21667V7H10.8075V8.2C9.85462 8.43333 9.08841 9.13333 9.08841 10.2056C9.08841 11.4889 10.0265 12.1278 11.3969 12.5C12.6248 12.8333 12.8703 13.3222 12.8703 13.8389C12.8703 14.2222 12.6297 14.8333 11.5442 14.8333C10.5324 14.8333 10.1346 14.3222 10.0806 13.6667H9C9.05894 14.8833 9.86444 15.5667 10.8075 15.7944V17H12.2809V15.8056C13.2387 15.6 14 14.9722 14 13.8333C14 12.2556 12.8065 11.7167 11.6916 11.3889Z" fill="black"/>
</svg>
