<svg width="179" height="47" viewBox="0 0 179 47" fill="none" xmlns="http://www.w3.org/2000/svg">
<path d="M67.2939 26.642C67.2939 27.082 67.2646 27.478 67.2059 27.83H58.2959C58.3692 28.71 58.6772 29.3993 59.2199 29.898C59.7626 30.3967 60.4299 30.646 61.2219 30.646C62.3659 30.646 63.1799 30.1547 63.6639 29.172H66.9859C66.6339 30.3453 65.9592 31.3133 64.9619 32.076C63.9646 32.824 62.7399 33.198 61.2879 33.198C60.1146 33.198 59.0586 32.9413 58.1199 32.428C57.1959 31.9 56.4699 31.1593 55.9419 30.206C55.4286 29.2527 55.1719 28.1527 55.1719 26.906C55.1719 25.6447 55.4286 24.5373 55.9419 23.584C56.4552 22.6307 57.1739 21.8973 58.0979 21.384C59.0219 20.8707 60.0852 20.614 61.2879 20.614C62.4466 20.614 63.4806 20.8633 64.3899 21.362C65.3139 21.8607 66.0252 22.572 66.5239 23.496C67.0372 24.4053 67.2939 25.454 67.2939 26.642ZM64.1039 25.762C64.0892 24.97 63.8032 24.3393 63.2459 23.87C62.6886 23.386 62.0066 23.144 61.1999 23.144C60.4372 23.144 59.7919 23.3787 59.2639 23.848C58.7506 24.3027 58.4352 24.9407 58.3179 25.762H64.1039ZM72.4947 20.13V23.98H77.6647V26.422H72.4947V30.492H78.3247V33H69.4147V17.622H78.3247V20.13H72.4947ZM80.2044 26.862C80.2044 25.63 80.4464 24.5373 80.9304 23.584C81.4291 22.6307 82.0964 21.8973 82.9324 21.384C83.7831 20.8707 84.7291 20.614 85.7704 20.614C86.6797 20.614 87.4717 20.7973 88.1464 21.164C88.8357 21.5307 89.3857 21.9927 89.7964 22.55V20.812H92.8984V33H89.7964V31.218C89.4004 31.79 88.8504 32.2667 88.1464 32.648C87.4571 33.0147 86.6577 33.198 85.7484 33.198C84.7217 33.198 83.7831 32.934 82.9324 32.406C82.0964 31.878 81.4291 31.1373 80.9304 30.184C80.4464 29.216 80.2044 28.1087 80.2044 26.862ZM89.7964 26.906C89.7964 26.158 89.6497 25.52 89.3564 24.992C89.0631 24.4493 88.6671 24.0387 88.1684 23.76C87.6697 23.4667 87.1344 23.32 86.5624 23.32C85.9904 23.32 85.4624 23.4593 84.9784 23.738C84.4944 24.0167 84.0984 24.4273 83.7904 24.97C83.4971 25.498 83.3504 26.1287 83.3504 26.862C83.3504 27.5953 83.4971 28.2407 83.7904 28.798C84.0984 29.3407 84.4944 29.7587 84.9784 30.052C85.4771 30.3453 86.0051 30.492 86.5624 30.492C87.1344 30.492 87.6697 30.3527 88.1684 30.074C88.6671 29.7807 89.0631 29.37 89.3564 28.842C89.6497 28.2993 89.7964 27.654 89.7964 26.906ZM100.553 20.614C101.463 20.614 102.262 20.7973 102.951 21.164C103.641 21.516 104.183 21.978 104.579 22.55V20.812H107.681V33.088C107.681 34.2173 107.454 35.222 106.999 36.102C106.545 36.9967 105.863 37.7007 104.953 38.214C104.044 38.742 102.944 39.006 101.653 39.006C99.9226 39.006 98.4999 38.6027 97.3853 37.796C96.2853 36.9893 95.6619 35.8893 95.5153 34.496H98.5733C98.7346 35.0533 99.0793 35.4933 99.6073 35.816C100.15 36.1533 100.803 36.322 101.565 36.322C102.46 36.322 103.186 36.0507 103.743 35.508C104.301 34.98 104.579 34.1733 104.579 33.088V31.196C104.183 31.768 103.633 32.2447 102.929 32.626C102.24 33.0073 101.448 33.198 100.553 33.198C99.5266 33.198 98.5879 32.934 97.7373 32.406C96.8866 31.878 96.2119 31.1373 95.7133 30.184C95.2293 29.216 94.9873 28.1087 94.9873 26.862C94.9873 25.63 95.2293 24.5373 95.7133 23.584C96.2119 22.6307 96.8793 21.8973 97.7153 21.384C98.5659 20.8707 99.5119 20.614 100.553 20.614ZM104.579 26.906C104.579 26.158 104.433 25.52 104.139 24.992C103.846 24.4493 103.45 24.0387 102.951 23.76C102.453 23.4667 101.917 23.32 101.345 23.32C100.773 23.32 100.245 23.4593 99.7613 23.738C99.2773 24.0167 98.8813 24.4273 98.5733 24.97C98.2799 25.498 98.1333 26.1287 98.1333 26.862C98.1333 27.5953 98.2799 28.2407 98.5733 28.798C98.8813 29.3407 99.2773 29.7587 99.7613 30.052C100.26 30.3453 100.788 30.492 101.345 30.492C101.917 30.492 102.453 30.3527 102.951 30.074C103.45 29.7807 103.846 29.37 104.139 28.842C104.433 28.2993 104.579 27.654 104.579 26.906ZM113.642 16.72V33H110.562V16.72H113.642ZM127.888 26.642C127.888 27.082 127.859 27.478 127.8 27.83H118.89C118.963 28.71 119.271 29.3993 119.814 29.898C120.357 30.3967 121.024 30.646 121.816 30.646C122.96 30.646 123.774 30.1547 124.258 29.172H127.58C127.228 30.3453 126.553 31.3133 125.556 32.076C124.559 32.824 123.334 33.198 121.882 33.198C120.709 33.198 119.653 32.9413 118.714 32.428C117.79 31.9 117.064 31.1593 116.536 30.206C116.023 29.2527 115.766 28.1527 115.766 26.906C115.766 25.6447 116.023 24.5373 116.536 23.584C117.049 22.6307 117.768 21.8973 118.692 21.384C119.616 20.8707 120.679 20.614 121.882 20.614C123.041 20.614 124.075 20.8633 124.984 21.362C125.908 21.8607 126.619 22.572 127.118 23.496C127.631 24.4053 127.888 25.454 127.888 26.642ZM124.698 25.762C124.683 24.97 124.397 24.3393 123.84 23.87C123.283 23.386 122.601 23.144 121.794 23.144C121.031 23.144 120.386 23.3787 119.858 23.848C119.345 24.3027 119.029 24.9407 118.912 25.762H124.698Z" fill="white"/>
<path d="M148.918 17.644L143.286 33H139.546L133.914 17.644H137.214L141.438 29.854L145.64 17.644H148.918ZM161.835 22.396C161.835 23.2173 161.637 23.9873 161.241 24.706C160.86 25.4247 160.251 26.004 159.415 26.444C158.594 26.884 157.552 27.104 156.291 27.104H153.717V33H150.637V17.644H156.291C157.479 17.644 158.491 17.8493 159.327 18.26C160.163 18.6707 160.786 19.2353 161.197 19.954C161.622 20.6727 161.835 21.4867 161.835 22.396ZM156.159 24.618C157.01 24.618 157.64 24.4273 158.051 24.046C158.462 23.65 158.667 23.1 158.667 22.396C158.667 20.9 157.831 20.152 156.159 20.152H153.717V24.618H156.159ZM177.028 33H173.948L166.974 22.462V33H163.894V17.622H166.974L173.948 28.182V17.622H177.028V33Z" fill="#FFB800"/>
<path d="M2.01562 21.6238L11.5681 10.8898C11.7523 9.36158 13.0623 6.32278 16.8081 5.85417C14.3839 6.0891 13.0856 6.47722 12.7259 6.65271C13.2084 4.48709 16.0259 0.212326 23.4362 0.438305C24.0152 0.438305 30.9624 0.155829 33.8571 6.65271C32.0238 5.8053 27.373 4.27994 23.4362 4.95788V19.0815C21.024 17.8575 15.7364 15.0139 13.8838 13.4321C12.9575 14.11 5.58573 19.1757 2.01562 21.6238Z" fill="white"/>
<path d="M23.1468 42.5268C9.25238 32.5838 10.9892 22.0004 13.5944 17.9517C13.5944 21.1154 18.0329 20.9647 20.2522 20.4939L16.7785 23.0362C18.2259 23.6011 22.2784 32.9227 23.4363 35.1825C25.752 27.7252 28.6467 23.9778 29.8046 23.0362C29.1292 22.5654 27.4888 21.3978 26.331 20.4939C32.1203 21.3413 32.6993 18.7991 33.2782 17.9517C40.2254 30.9454 24.0152 41.9619 23.1468 42.5268Z" fill="white"/>
<path d="M19.3848 23.3194L23.1478 21.0596C24.2092 21.5304 26.5057 22.6414 27.2004 23.3194C25.1741 25.5791 23.7268 30.3812 23.1478 30.9461C23.1478 29.5903 20.6391 25.2967 19.3848 23.3194Z" fill="white"/>
<path d="M27.1992 18.5176C27.7782 18.6118 29.3413 18.4046 30.9623 16.8228C30.9623 17.3877 29.2255 20.2124 27.1992 18.5176Z" fill="white"/>
<path d="M19.3848 18.5176C18.8058 18.6118 17.2427 18.4046 15.6217 16.8228C15.6217 17.3877 17.3585 20.2124 19.3848 18.5176Z" fill="white"/>
<path d="M32.1199 13.7144L24.5938 18.2339C24.5938 18.0079 24.7095 17.669 24.8832 17.3865C25.7516 15.9742 30.0936 13.7144 32.1199 13.7144Z" fill="#FFB800"/>
<path d="M8.09397 19.9292L9.54131 18.7993C9.30973 21.2851 7.12908 27.7443 6.06769 30.6632L8.38344 33.7704C8.47993 33.2996 8.61501 31.9626 8.38344 30.3807C10.4676 35.5782 17.3569 42.1504 20.5411 44.7868C20.2516 44.9752 19.499 45.4083 18.8043 45.6343C11.0345 40.3923 5.48876 32.923 3.75195 30.6632C5.37297 27.7255 7.32205 22.2832 8.09397 19.9292Z" fill="white"/>
<path d="M38.9842 19.9292L37.5368 18.7993C37.7684 21.2851 39.949 27.7443 41.0104 30.6632L38.6947 33.7704C38.5982 33.2996 38.4631 31.9626 38.6947 30.3807C36.6105 35.5782 29.7212 42.1504 26.537 44.7868C26.8265 44.9752 27.5791 45.4083 28.2739 45.6343C36.0436 40.3923 41.5894 32.923 43.3262 30.6632C41.7052 27.7255 39.7561 22.2832 38.9842 19.9292Z" fill="white"/>
<path d="M35.3057 10.87L44.2792 21.039L33.2794 13.4123H36.4635C35.4987 12.8473 33.3952 11.6044 32.7005 11.1525C31.311 5.95498 25.9462 5.40886 23.4375 5.78549V4.6556C31.5426 3.52571 35.0162 8.8927 35.3057 10.87Z" fill="#FFB800"/>
</svg>
