<svg width="37" height="37" viewBox="0 0 37 37" fill="none" xmlns="http://www.w3.org/2000/svg">
<g clip-path="url(#clip0_7853_16657)">
<path d="M18.4991 25.3574C17.4647 25.3574 16.5977 26.2245 16.5977 27.2589C16.5977 28.2933 17.4647 29.1604 18.4991 29.1604C19.4955 29.1604 20.4006 28.2933 20.355 27.3045C20.4006 26.2169 19.5411 25.3574 18.4991 25.3574Z" fill="#D92D20"/>
<path d="M36.0996 32.0962C37.2938 30.035 37.3014 27.5783 36.1149 25.5247L24.204 4.89744C23.0251 2.82103 20.8954 1.58887 18.5071 1.58887C16.1189 1.58887 13.9892 2.82863 12.8103 4.88984L0.884225 25.5399C-0.302299 27.6163 -0.294693 30.0883 0.907043 32.1495C2.09357 34.1879 4.21562 35.4124 6.58867 35.4124H30.38C32.7606 35.4124 34.8979 34.1726 36.0996 32.0962ZM33.5136 30.6055C32.8519 31.7464 31.6806 32.4233 30.3724 32.4233H6.58106C5.28805 32.4233 4.12435 31.7616 3.47784 30.6435C2.82373 29.5102 2.81613 28.1564 3.47024 27.0155L15.3963 6.37299C16.0428 5.23971 17.1989 4.57039 18.5071 4.57039C19.8078 4.57039 20.9715 5.24732 21.618 6.3806L33.5365 27.0231C34.1754 28.1335 34.1677 29.4722 33.5136 30.6055Z" fill="#D92D20"/>
<path d="M18.0285 12.0088C17.1234 12.2674 16.5605 13.0888 16.5605 14.0852C16.6062 14.686 16.6442 15.2945 16.6898 15.8954C16.8191 18.1848 16.9484 20.4285 17.0777 22.7179C17.1234 23.4937 17.7243 24.0565 18.5001 24.0565C19.2759 24.0565 19.8843 23.4557 19.9224 22.6723C19.9224 22.2007 19.9224 21.7672 19.968 21.288C20.0517 19.82 20.1429 18.3521 20.2266 16.8842C20.2722 15.9334 20.3559 14.9827 20.4015 14.0319C20.4015 13.6897 20.3559 13.3854 20.2266 13.0812C19.8387 12.2293 18.9336 11.7958 18.0285 12.0088Z" fill="#D92D20"/>
</g>
<defs>
<clipPath id="clip0_7853_16657">
<rect width="37" height="37" fill="white"/>
</clipPath>
</defs>
</svg>
