<svg width="22" height="22" viewBox="0 0 22 22" fill="none" xmlns="http://www.w3.org/2000/svg">
  <path
    d="M8.77844 14.9303C9.05194 14.9303 9.31424 15.039 9.50764 15.2324C9.70104 15.4258 9.80969 15.6881 9.80969 15.9616V18.4739C9.81003 18.8601 9.96355 19.2303 10.2366 19.5034C10.5096 19.7765 10.8798 19.9301 11.2659 19.9306H18.4735C18.8596 19.9301 19.2298 19.7765 19.5028 19.5034C19.7758 19.2303 19.9293 18.8601 19.9297 18.4739V3.52598C19.9293 3.13983 19.7758 2.76959 19.5028 2.49651C19.2298 2.22342 18.8596 2.06979 18.4735 2.06934H11.2659C10.8798 2.06979 10.5096 2.22342 10.2366 2.49651C9.96355 2.76959 9.81003 3.13983 9.80969 3.52598V5.69762C9.80969 5.97112 9.70104 6.23342 9.50764 6.42682C9.31424 6.62022 9.05194 6.72887 8.77844 6.72887C8.50493 6.72887 8.24263 6.62022 8.04923 6.42682C7.85584 6.23342 7.74719 5.97112 7.74719 5.69762V3.52598C7.74832 2.59307 8.1194 1.69868 8.77902 1.03898C9.43865 0.379268 10.333 0.00808671 11.2659 0.00683594H18.4735C19.4064 0.00808671 20.3007 0.379268 20.9604 1.03898C21.62 1.69868 21.9911 2.59307 21.9922 3.52598V18.4739C21.9911 19.4069 21.62 20.3012 20.9604 20.9609C20.3007 21.6207 19.4064 21.9918 18.4735 21.9931H11.2659C10.333 21.9918 9.43865 21.6207 8.77902 20.9609C8.1194 20.3012 7.74832 19.4069 7.74719 18.4739V15.9616C7.74719 15.6881 7.85584 15.4258 8.04923 15.2324C8.24263 15.039 8.50493 14.9303 8.77844 14.9303Z"
    fill="black"
    stroke="black"
    stroke-width="0.25"
  />
  <path
    d="M0.310976 10.2491L3.98094 6.58173C4.17185 6.39088 4.42998 6.28249 4.69992 6.27983C4.96985 6.27718 5.23007 6.38048 5.42469 6.56756C5.84148 6.96845 5.8316 7.64736 5.42254 8.05642L3.51172 9.96853H12.4492C12.7227 9.96853 12.985 10.0772 13.1784 10.2706C13.3718 10.464 13.4805 10.7263 13.4805 10.9998C13.4805 11.2733 13.3718 11.5356 13.1784 11.729C12.985 11.9224 12.7227 12.031 12.4492 12.031H3.51172L5.44101 13.9603C5.63446 14.1537 5.74316 14.416 5.7432 14.6896C5.74324 14.9631 5.63462 15.2255 5.44123 15.4189C5.24784 15.6123 4.98552 15.7211 4.71199 15.7211C4.43845 15.7211 4.1761 15.6125 3.98266 15.4191L0.310976 11.7492C0.212354 11.6507 0.134109 11.5338 0.0807247 11.4051C0.027339 11.2764 -0.00014019 11.1385 -0.00014019 10.9991C-0.00014019 10.8598 0.027339 10.7218 0.0807247 10.5931C0.134109 10.4644 0.212354 10.3475 0.310976 10.2491Z"
    fill="black"
    stroke="black"
    stroke-width="0.25"
  />
</svg>
