<svg width="22" height="14" viewBox="0 0 22 14" fill="none" xmlns="http://www.w3.org/2000/svg">
<path d="M21.7917 10.9731V10.7104H21.7229L21.6434 10.8909L21.5642 10.7104H21.495V10.9731H21.5439V10.775L21.6183 10.946H21.6689L21.7432 10.7746V10.9731H21.7917ZM21.3554 10.9731V10.7552H21.4436V10.7108H21.2188V10.7552H21.307V10.9731H21.3554Z" fill="#F79410"/>
<path d="M13.9758 12.1037H8.02539V1.44971H13.9758V12.1037Z" fill="#FF5F00"/>
<path d="M8.40568 6.77555C8.40568 4.61433 9.42136 2.68918 11.003 1.44854C9.8464 0.541319 8.38665 -0.000168673 6.80021 -0.000168673C3.04446 -0.000168673 0 3.03338 0 6.77555C0 10.5177 3.04446 13.5513 6.80021 13.5513C8.38665 13.5513 9.8464 13.0098 11.003 12.1026C9.42136 10.8619 8.40568 8.93677 8.40568 6.77555Z" fill="#EB001B"/>
<path d="M21.9996 6.77555C21.9996 10.5177 18.9551 13.5513 15.1994 13.5513C13.6129 13.5513 12.1532 13.0098 10.9961 12.1026C12.5782 10.8619 13.5939 8.93677 13.5939 6.77555C13.5939 4.61433 12.5782 2.68918 10.9961 1.44854C12.1532 0.541319 13.6129 -0.000168673 15.1994 -0.000168673C18.9551 -0.000168673 21.9996 3.03338 21.9996 6.77555Z" fill="#F79E1B"/>
</svg>
