<svg width="159" height="200" viewBox="0 0 159 200" fill="none" xmlns="http://www.w3.org/2000/svg">
<path d="M138.832 59.1466C137.824 59.1482 136.826 58.938 135.902 58.5295C134.979 58.1209 134.15 57.523 133.468 56.7738C125.786 48.3384 116.449 41.6041 106.051 36.9973C95.6526 32.3905 84.4187 30.0118 73.061 30.0118C61.7033 30.0118 50.4694 32.3905 40.071 36.9973C29.6726 41.6041 20.3365 48.3384 12.654 56.7738C12.0057 57.4841 11.225 58.0586 10.3564 58.4647C9.4879 58.8707 8.54855 59.1003 7.59203 59.1403C6.63551 59.1803 5.68054 59.0299 4.78165 58.6977C3.88276 58.3656 3.05755 57.8581 2.35314 57.2044C1.64874 56.5506 1.07894 55.7633 0.676255 54.8875C0.273574 54.0117 0.0459091 53.0645 0.00625616 52.1C-0.0333968 51.1354 0.115747 50.1725 0.445158 49.2661C0.774569 48.3596 1.27779 47.5275 1.92612 46.8172C10.9741 36.8861 21.9686 28.9578 34.2133 23.5344C46.458 18.1109 59.6862 15.3105 73.0601 15.3105C86.434 15.3105 99.6622 18.1109 111.907 23.5344C124.152 28.9578 135.146 36.8861 144.194 46.8172C145.153 47.8678 145.788 49.1772 146.021 50.5856C146.254 51.994 146.075 53.4403 145.506 54.7479C144.938 56.0555 144.004 57.1678 142.818 57.9489C141.633 58.7301 140.248 59.1463 138.832 59.1466Z" fill="#FFB800"/>
<path d="M119.043 84.1958C117.147 84.1984 115.326 83.4522 113.974 82.1182C103.031 71.3696 88.3314 65.3508 73.0236 65.3508C57.7158 65.3508 43.0165 71.3696 32.0736 82.1182C30.6939 83.4362 28.8531 84.156 26.9492 84.122C25.0452 84.0879 23.2311 83.3028 21.899 81.9364C20.5669 80.5699 19.8239 78.732 19.8306 76.8198C19.8373 74.9077 20.5932 73.075 21.9349 71.718C35.5864 58.3068 53.9253 50.7969 73.0236 50.7969C92.1219 50.7969 110.461 58.3068 124.112 71.718C125.141 72.7295 125.847 74.0258 126.139 75.4416C126.431 76.8574 126.297 78.3284 125.753 79.6671C125.209 81.0059 124.28 82.1516 123.085 82.9581C121.89 83.7647 120.483 84.1956 119.043 84.1958Z" fill="#FFB800"/>
<path d="M99.1744 110.281C97.4126 110.283 95.7104 109.624 94.3858 108.426C88.3646 103 81.1899 100.251 73.0651 100.251C64.9403 100.251 57.7692 103 51.7426 108.426C51.0229 109.077 50.1859 109.575 49.2794 109.891C48.3728 110.208 47.4146 110.338 46.4596 110.272C45.5045 110.207 44.5713 109.948 43.7134 109.51C42.8554 109.073 42.0896 108.465 41.4597 107.722C40.8299 106.979 40.3483 106.115 40.0425 105.18C39.7368 104.245 39.6129 103.257 39.678 102.273C39.743 101.289 39.9957 100.327 40.4216 99.4433C40.8475 98.5596 41.4383 97.7712 42.1601 97.1231C50.7978 89.3485 61.478 85.2395 73.0651 85.2395C84.6522 85.2395 95.3378 89.3485 103.968 97.1231C105.084 98.1284 105.876 99.4608 106.238 100.942C106.6 102.424 106.515 103.984 105.994 105.415C105.473 106.845 104.541 108.077 103.322 108.947C102.104 109.816 100.656 110.282 99.1744 110.281Z" fill="#FFB800"/>
<path d="M73.0617 143.687C70.164 143.688 67.3558 142.641 65.1157 140.727C62.8756 138.812 61.3421 136.148 60.7765 133.187C60.211 130.227 60.6484 127.154 62.0142 124.492C63.3799 121.83 65.5897 119.743 68.2667 118.588C70.9438 117.433 73.9226 117.28 76.6955 118.156C79.4685 119.032 81.864 120.883 83.4739 123.393C85.0838 125.902 85.8085 128.916 85.5245 131.92C85.2405 134.924 83.9653 137.732 81.9163 139.866C80.7615 141.089 79.3825 142.057 77.8614 142.713C76.3403 143.37 74.7081 143.701 73.0617 143.687Z" fill="#FFB800"/>
<path d="M125.837 130.712C117.036 130.712 109.095 127.401 102.873 121.134C96.6501 114.867 93.3594 106.873 93.3594 98.0116C93.3594 89.1502 96.6501 81.1548 102.873 74.8896C109.095 68.6243 117.036 65.311 125.837 65.311C134.638 65.311 142.579 68.6243 148.802 74.8896C155.025 81.1548 158.315 89.1502 158.315 98.0116C158.315 106.873 155.026 114.868 148.802 121.134C142.578 127.399 134.638 130.712 125.837 130.712Z" fill="#D92D20"/>
<path d="M141.979 88.1656L135.684 81.8005L125.837 91.6714L115.99 81.8005L109.695 88.1656L119.513 98.011L109.695 107.855L115.99 114.222L125.837 104.349L135.684 114.222L141.979 107.855L132.161 98.011L141.979 88.1656Z" fill="white"/>
<path d="M31.2857 193H29.2337L23.0597 183.658V193H21.0077V180.472H23.0597L29.2337 189.796V180.472H31.2857V193ZM42.9421 187.798C42.9421 188.17 42.9181 188.506 42.8701 188.806H35.2921C35.3521 189.598 35.6461 190.234 36.1741 190.714C36.7021 191.194 37.3501 191.434 38.1181 191.434C39.2221 191.434 40.0021 190.972 40.4581 190.048H42.6721C42.3721 190.96 41.8261 191.71 41.0341 192.298C40.2541 192.874 39.2821 193.162 38.1181 193.162C37.1701 193.162 36.3181 192.952 35.5621 192.532C34.8181 192.1 34.2301 191.5 33.7981 190.732C33.3781 189.952 33.1681 189.052 33.1681 188.032C33.1681 187.012 33.3721 186.118 33.7801 185.35C34.2001 184.57 34.7821 183.97 35.5261 183.55C36.2821 183.13 37.1461 182.92 38.1181 182.92C39.0541 182.92 39.8881 183.124 40.6201 183.532C41.3521 183.94 41.9221 184.516 42.3301 185.26C42.7381 185.992 42.9421 186.838 42.9421 187.798ZM40.8001 187.15C40.7881 186.394 40.5181 185.788 39.9901 185.332C39.4621 184.876 38.8081 184.648 38.0281 184.648C37.3201 184.648 36.7141 184.876 36.2101 185.332C35.7061 185.776 35.4061 186.382 35.3101 187.15H40.8001ZM47.2272 184.756V190.246C47.2272 190.618 47.3112 190.888 47.4792 191.056C47.6592 191.212 47.9592 191.29 48.3792 191.29H49.6392V193H48.0192C47.0952 193 46.3872 192.784 45.8952 192.352C45.4032 191.92 45.1572 191.218 45.1572 190.246V184.756H43.9872V183.082H45.1572V180.616H47.2272V183.082H49.6392V184.756H47.2272ZM64.7222 183.082L61.6442 193H59.4842L57.4862 185.674L55.4882 193H53.3282L50.2322 183.082H52.3202L54.3902 191.056L56.4962 183.082H58.6382L60.6542 191.02L62.7062 183.082H64.7222ZM70.4294 193.162C69.4934 193.162 68.6474 192.952 67.8914 192.532C67.1354 192.1 66.5414 191.5 66.1094 190.732C65.6774 189.952 65.4614 189.052 65.4614 188.032C65.4614 187.024 65.6834 186.13 66.1274 185.35C66.5714 184.57 67.1774 183.97 67.9454 183.55C68.7134 183.13 69.5714 182.92 70.5194 182.92C71.4674 182.92 72.3254 183.13 73.0934 183.55C73.8614 183.97 74.4674 184.57 74.9114 185.35C75.3554 186.13 75.5774 187.024 75.5774 188.032C75.5774 189.04 75.3494 189.934 74.8934 190.714C74.4374 191.494 73.8134 192.1 73.0214 192.532C72.2414 192.952 71.3774 193.162 70.4294 193.162ZM70.4294 191.38C70.9574 191.38 71.4494 191.254 71.9054 191.002C72.3734 190.75 72.7514 190.372 73.0394 189.868C73.3274 189.364 73.4714 188.752 73.4714 188.032C73.4714 187.312 73.3334 186.706 73.0574 186.214C72.7814 185.71 72.4154 185.332 71.9594 185.08C71.5034 184.828 71.0114 184.702 70.4834 184.702C69.9554 184.702 69.4634 184.828 69.0074 185.08C68.5634 185.332 68.2094 185.71 67.9454 186.214C67.6814 186.706 67.5494 187.312 67.5494 188.032C67.5494 189.1 67.8194 189.928 68.3594 190.516C68.9114 191.092 69.6014 191.38 70.4294 191.38ZM79.5297 184.522C79.8297 184.018 80.2257 183.628 80.7177 183.352C81.2217 183.064 81.8157 182.92 82.4997 182.92V185.044H81.9777C81.1737 185.044 80.5617 185.248 80.1417 185.656C79.7337 186.064 79.5297 186.772 79.5297 187.78V193H77.4777V183.082H79.5297V184.522ZM88.1816 188.05L92.7536 193H89.9816L86.3096 188.734V193H84.2576V179.68H86.3096V187.42L89.9096 183.082H92.7536L88.1816 188.05ZM100.696 182.146V185.818H105.016V187.492H100.696V191.326H105.556V193H98.6436V180.472H105.556V182.146H100.696ZM110.007 184.522C110.307 184.018 110.703 183.628 111.195 183.352C111.699 183.064 112.293 182.92 112.977 182.92V185.044H112.455C111.651 185.044 111.039 185.248 110.619 185.656C110.211 186.064 110.007 186.772 110.007 187.78V193H107.955V183.082H110.007V184.522ZM116.787 184.522C117.087 184.018 117.483 183.628 117.975 183.352C118.479 183.064 119.073 182.92 119.757 182.92V185.044H119.235C118.431 185.044 117.819 185.248 117.399 185.656C116.991 186.064 116.787 186.772 116.787 187.78V193H114.735V183.082H116.787V184.522ZM125.817 193.162C124.881 193.162 124.035 192.952 123.279 192.532C122.523 192.1 121.929 191.5 121.497 190.732C121.065 189.952 120.849 189.052 120.849 188.032C120.849 187.024 121.071 186.13 121.515 185.35C121.959 184.57 122.565 183.97 123.333 183.55C124.101 183.13 124.959 182.92 125.907 182.92C126.855 182.92 127.713 183.13 128.481 183.55C129.249 183.97 129.855 184.57 130.299 185.35C130.743 186.13 130.965 187.024 130.965 188.032C130.965 189.04 130.737 189.934 130.281 190.714C129.825 191.494 129.201 192.1 128.409 192.532C127.629 192.952 126.765 193.162 125.817 193.162ZM125.817 191.38C126.345 191.38 126.837 191.254 127.293 191.002C127.761 190.75 128.139 190.372 128.427 189.868C128.715 189.364 128.859 188.752 128.859 188.032C128.859 187.312 128.721 186.706 128.445 186.214C128.169 185.71 127.803 185.332 127.347 185.08C126.891 184.828 126.399 184.702 125.871 184.702C125.343 184.702 124.851 184.828 124.395 185.08C123.951 185.332 123.597 185.71 123.333 186.214C123.069 186.706 122.937 187.312 122.937 188.032C122.937 189.1 123.207 189.928 123.747 190.516C124.299 191.092 124.989 191.38 125.817 191.38ZM134.917 184.522C135.217 184.018 135.613 183.628 136.105 183.352C136.609 183.064 137.203 182.92 137.887 182.92V185.044H137.365C136.561 185.044 135.949 185.248 135.529 185.656C135.121 186.064 134.917 186.772 134.917 187.78V193H132.865V183.082H134.917V184.522Z" fill="white"/>
</svg>
