<svg width="47" height="47" viewBox="0 0 47 47" fill="none" xmlns="http://www.w3.org/2000/svg">
<path d="M23.6511 0.886378C23.0469 0.893227 22.47 1.14015 22.0468 1.57307C21.6236 2.00599 21.3885 2.58963 21.3931 3.19616V21.5279C21.3931 22.1359 21.6337 22.719 22.062 23.1489C22.4903 23.5789 23.0713 23.8204 23.677 23.8204C24.2827 23.8204 24.8637 23.5789 25.292 23.1489C25.7203 22.719 25.9609 22.1359 25.9609 21.5279V3.19616C25.9632 2.89145 25.905 2.58934 25.7896 2.30749C25.6742 2.02564 25.5041 1.76971 25.289 1.55465C25.0739 1.33959 24.8183 1.16972 24.5371 1.05498C24.2559 0.940238 23.9547 0.88292 23.6511 0.886378ZM36.9582 5.47146C36.8836 5.46778 36.8088 5.46778 36.7341 5.47146C36.2818 5.50922 35.851 5.6814 35.4966 5.96601C35.1422 6.25062 34.8804 6.63477 34.7444 7.06942C34.6085 7.50408 34.6046 7.96953 34.7333 8.4064C34.8621 8.84326 35.1176 9.23171 35.4672 9.52219C39.4231 12.8921 41.9225 17.9081 41.9225 23.536C41.9225 33.7059 33.7866 41.9022 23.6856 41.9022C21.2826 41.8977 18.904 41.4192 16.6861 40.4941C14.4682 39.569 12.4546 38.2154 10.7606 36.511C9.06659 34.8066 7.72543 32.7847 6.81394 30.5612C5.90244 28.3377 5.43851 25.9563 5.44872 23.5532C5.44872 17.9512 7.91363 12.9696 11.8265 9.59114C12.0699 9.40071 12.2723 9.16274 12.4216 8.89159C12.5708 8.62045 12.6638 8.32176 12.6948 8.01355C12.7259 7.70534 12.6944 7.39402 12.6022 7.09837C12.5101 6.80273 12.3592 6.5289 12.1587 6.29341C11.9581 6.05793 11.7122 5.86567 11.4356 5.72826C11.159 5.59085 10.8575 5.51113 10.5494 5.49392C10.2412 5.47671 9.93283 5.52236 9.64276 5.62811C9.35269 5.73387 9.08698 5.89754 8.86167 6.10923C6.35578 8.26864 4.3455 10.9435 2.96815 13.9511C1.5908 16.9586 0.878826 20.228 0.880874 23.536C0.873961 29.6013 3.2709 35.4222 7.54678 39.7239C11.8227 44.0256 17.629 46.4576 23.6942 46.4873C29.7586 46.4599 35.5645 44.0281 39.8381 39.7254C44.1118 35.4226 46.5041 29.6004 46.4904 23.536C46.4904 16.5377 43.3618 10.2462 38.4234 6.04029C38.0174 5.68274 37.4983 5.4812 36.9582 5.47146Z" fill="#082A4E"/>
</svg>
