<svg width="80" height="80" viewBox="0 0 80 80" fill="none" xmlns="http://www.w3.org/2000/svg">
<path d="M76.3758 31.3647C76.4881 31.3647 76.4881 31.3647 76.4881 31.4842V31.6037L43.5556 68.3206H43.4433H43.331L43.2188 68.2011L53.6711 31.4842C53.6711 31.3647 53.7834 31.3647 53.7834 31.3647H76.3758Z" fill="#FFB800"/>
<path d="M51.4311 31.4842L40.8658 68.6803L40.7536 68.7998C40.7536 68.7998 40.6413 68.7998 40.6413 68.6803L28.8398 31.4842V31.3647H28.9521H51.2065H51.3188L51.431 31.4842H51.4311Z" fill="#FFB800"/>
<path d="M24.7886 28.9748H4.78221C4.78221 28.9748 4.66992 28.9748 4.66992 28.8554V28.7359L14.7855 14.2637H14.8977H15.01L25.0134 28.7359V28.8554C24.9011 28.9748 24.9011 28.9748 24.7888 28.9748H24.7886Z" fill="#FFB800"/>
<path d="M26.467 31.4842L37.9315 67.843C37.9315 67.843 37.9315 67.9625 37.8192 67.9625H37.707H37.5947L5 31.6037V31.4842L5.11229 31.3647H26.2433C26.4679 31.3647 26.4679 31.3647 26.4679 31.4842H26.467Z" fill="#FFB800"/>
<path d="M76.8275 28.8496L76.7152 28.9691L55.3603 28.9697C55.3603 28.9697 55.248 28.9697 55.248 28.8502V28.7307L65.4759 14.1387H65.5882H65.7005L76.7153 28.7307C76.8276 28.7301 76.8276 28.8496 76.8276 28.8496H76.8275Z" fill="#FFB800"/>
<path d="M17.1523 13.5417V13.4222L17.2646 13.3027H37.3836C37.3836 13.3027 37.4959 13.3027 37.4959 13.4222V13.5417L27.268 28.1337H27.1558H27.0435L17.1523 13.5417Z" fill="#FFB800"/>
<path d="M42.3125 13.5417V13.4222L42.4248 13.3027H63.1054C63.1054 13.3027 63.2177 13.3027 63.2177 13.4222V13.5417L52.9899 28.1337H52.8776H52.7653L42.3125 13.5417Z" fill="#FFB800"/>
<path d="M29.6211 28.7307L39.849 14.1387H39.9612H40.0735L50.5264 28.7307V28.8502L50.4142 28.9697L29.7335 28.9702C29.6212 28.9702 29.6212 28.9702 29.6212 28.8507V28.7307H29.6211Z" fill="#FFB800"/>
</svg>
