<svg width="20" height="22" viewBox="0 0 20 22" fill="none" xmlns="http://www.w3.org/2000/svg">
<path d="M13.0595 9.49951C13.3353 9.19053 13.3085 8.71642 12.9995 8.44055C12.6905 8.16467 12.2164 8.19151 11.9405 8.50049L8.92857 11.8739L8.05945 10.9005C7.78358 10.5915 7.30947 10.5647 7.00049 10.8405C6.69151 11.1164 6.66467 11.5905 6.94055 11.8995L8.36912 13.4995C8.51141 13.6589 8.71492 13.75 8.92857 13.75C9.14222 13.75 9.34573 13.6589 9.48802 13.4995L13.0595 9.49951Z" fill="black"/>
<path fill-rule="evenodd" clip-rule="evenodd" d="M10 0.25C9.06248 0.25 8.16732 0.556583 6.72339 1.05112L5.99595 1.30014C4.51462 1.8072 3.3714 2.19852 2.55303 2.53099C2.14078 2.69846 1.78637 2.86067 1.50098 3.02641C1.22634 3.1859 0.950822 3.38484 0.763632 3.65154C0.578604 3.91516 0.482934 4.23924 0.422814 4.55122C0.360312 4.87556 0.322624 5.26464 0.298299 5.71136C0.25 6.59836 0.25 7.81351 0.25 9.38963V10.9914C0.25 17.0924 4.85803 20.0175 7.59833 21.2146L7.62543 21.2264C7.96523 21.3749 8.28462 21.5144 8.6516 21.6084C9.03907 21.7076 9.45074 21.75 10 21.75C10.5493 21.75 10.9609 21.7076 11.3484 21.6084C11.7154 21.5144 12.0348 21.3749 12.3745 21.2264L12.4017 21.2146C15.142 20.0175 19.75 17.0924 19.75 10.9914V9.38982C19.75 7.81361 19.75 6.5984 19.7017 5.71136C19.6774 5.26464 19.6397 4.87556 19.5772 4.55122C19.5171 4.23924 19.4214 3.91516 19.2364 3.65154C19.0492 3.38484 18.7737 3.1859 18.499 3.02641C18.2136 2.86067 17.8592 2.69846 17.447 2.53099C16.6286 2.19852 15.4854 1.8072 14.004 1.30013L13.2766 1.05112C11.8327 0.556583 10.9375 0.25 10 0.25ZM7.08062 2.5143C8.69515 1.96164 9.34226 1.75 10 1.75C10.6577 1.75 11.3049 1.96164 12.9194 2.5143L13.4922 2.71037C15.0048 3.22814 16.1079 3.60605 16.8824 3.92069C17.269 4.07774 17.5491 4.20935 17.7457 4.32353C17.8428 4.3799 17.9097 4.42642 17.9543 4.46273C17.9922 4.49349 18.0066 4.51092 18.0087 4.51348C18.0106 4.5166 18.0231 4.53737 18.0406 4.58654C18.0606 4.64265 18.0827 4.72309 18.1043 4.83506C18.148 5.06169 18.1811 5.37301 18.2039 5.79292C18.2497 6.63411 18.25 7.80833 18.25 9.41666V10.9914C18.25 16.1665 14.3801 18.7135 11.8012 19.84C11.4297 20.0023 11.2152 20.0941 10.9764 20.1552C10.7483 20.2136 10.47 20.25 10 20.25C9.53 20.25 9.25168 20.2136 9.0236 20.1552C8.78479 20.0941 8.57027 20.0023 8.19879 19.84C5.6199 18.7135 1.75 16.1665 1.75 10.9914V9.41666C1.75 7.80833 1.75028 6.63411 1.79608 5.79292C1.81894 5.37301 1.85204 5.06169 1.89571 4.83506C1.91729 4.72309 1.93944 4.64265 1.95943 4.58654C1.97693 4.5374 1.98936 4.51663 1.99129 4.51349C1.99336 4.51095 2.0078 4.49351 2.04567 4.46273C2.09034 4.42642 2.15722 4.3799 2.25429 4.32353C2.4509 4.20935 2.731 4.07774 3.11759 3.92069C3.8921 3.60605 4.99521 3.22814 6.5078 2.71037L7.08062 2.5143Z" fill="black"/>
</svg>
