<svg width="30" height="30" viewBox="0 0 30 30" fill="none" xmlns="http://www.w3.org/2000/svg">
<rect width="30" height="30" rx="15" fill="#384B60"/>
<g clip-path="url(#clip0_6800_13044)">
<path d="M24.862 13.354C24.6158 11.8773 24.0394 10.4752 23.1757 9.25233C22.2845 7.98352 21.1102 6.9395 19.7459 6.20285C18.3815 5.46619 16.8644 5.05713 15.3147 5.008H15.3074C15.205 5.00467 15.103 5 15 5C12.441 4.99886 9.97962 5.98263 8.12635 7.74733C8.11057 7.75963 8.09605 7.77348 8.08302 7.78867C6.96393 8.85509 6.10897 10.1678 5.58605 11.6225C5.06313 13.0772 4.88667 14.6338 5.07069 16.1687C5.07069 16.1757 5.07069 16.182 5.07302 16.1887C5.28023 17.897 5.92383 19.5233 6.94183 20.9108C7.95983 22.2983 9.31793 23.4003 10.8854 24.1107C10.8934 24.1143 10.9007 24.1183 10.909 24.1213C11.8876 24.5631 12.9316 24.8429 14 24.9497C15.5084 25.1021 17.0318 24.9084 18.4541 24.3835C19.8764 23.8586 21.1603 23.0161 22.208 21.9203C22.2264 21.905 22.2427 21.8877 22.2574 21.8687C23.3218 20.7495 24.1114 19.3981 24.5636 17.9213C25.0158 16.4444 25.1183 14.8826 24.863 13.3593L24.862 13.354ZM19.982 10.8207C19.9722 10.7267 19.9543 10.6336 19.9287 10.5427C20.8397 10.1937 21.787 9.94773 22.7527 9.80933C23.335 10.6753 23.7673 11.6331 24.0314 12.6427C22.7898 11.8191 21.422 11.2041 19.982 10.822V10.8207ZM18.3334 14.3333C18.3347 15.9533 18.0394 17.56 17.4617 19.0733C17.3121 19.027 17.1566 19.0023 17 19C16.7321 19.0004 16.4682 19.0654 16.2309 19.1897C15.9935 19.314 15.7897 19.4937 15.6367 19.7137C14.8954 19.308 14.1937 18.8339 13.5407 18.2977C13.6749 17.975 13.7028 17.618 13.6202 17.2784C13.5377 16.9388 13.349 16.6344 13.0817 16.4093C14.0681 14.6824 15.4255 13.196 17.056 12.0573C17.1991 12.2308 17.3761 12.3733 17.5761 12.4761C17.7761 12.5788 17.995 12.6397 18.2194 12.655C18.293 13.2117 18.331 13.772 18.3334 14.3333ZM13.8884 24.2647C13.0133 24.1613 12.1576 23.9334 11.347 23.588C11.338 23.3921 11.3334 23.1961 11.3334 23C11.3345 21.7545 11.5108 20.5154 11.857 19.319C11.905 19.323 11.951 19.3333 12 19.3333C12.437 19.333 12.8562 19.1604 13.1667 18.853C13.8527 19.4116 14.5892 19.9051 15.3667 20.327C15.3044 20.6228 15.3247 20.93 15.4256 21.215C15.5264 21.4999 15.7038 21.7516 15.9384 21.9423C15.3485 22.7942 14.6604 23.5737 13.8884 24.2647ZM8.33335 12.6667C8.33335 12.4015 8.43871 12.1471 8.62625 11.9596C8.81378 11.772 9.06814 11.6667 9.33335 11.6667C9.59857 11.6667 9.85292 11.772 10.0405 11.9596C10.228 12.1471 10.3334 12.4015 10.3334 12.6667C10.3334 12.9319 10.228 13.1862 10.0405 13.3738C9.85292 13.5613 9.59857 13.6667 9.33335 13.6667C9.06814 13.6667 8.81378 13.5613 8.62625 13.3738C8.43871 13.1862 8.33335 12.9319 8.33335 12.6667ZM8.67135 8.148C10.3921 6.55167 12.6529 5.66525 15 5.66667C15.044 5.66667 15.0874 5.66933 15.1314 5.67C16.1284 6.83116 16.9158 8.15693 17.4584 9.588C17.1663 9.76735 16.9364 10.0322 16.8 10.3467C16.6447 10.341 16.4894 10.3333 16.3334 10.3333C14.3492 10.33 12.3874 10.7527 10.5807 11.573C10.3925 11.3519 10.1486 11.1852 9.87436 11.09C9.60009 10.9949 9.30536 10.9747 9.02069 11.0317C8.79918 10.0861 8.68203 9.1191 8.67135 8.148ZM11 12.6667C10.9977 12.4926 10.9678 12.32 10.9114 12.1553C12.6165 11.3906 14.4646 10.9968 16.3334 11C16.4454 11 16.556 11.0063 16.6667 11.0097C16.6697 11.164 16.694 11.317 16.7397 11.4643C14.9977 12.667 13.5487 14.2462 12.5 16.085C12.1504 15.964 11.769 15.9724 11.425 16.1087C10.9422 15.4812 10.5164 14.8119 10.1527 14.1087C10.4088 13.9647 10.6222 13.7554 10.7711 13.5021C10.92 13.2488 10.9989 12.9605 11 12.6667ZM12 16.6667C12.2652 16.6667 12.5196 16.772 12.7071 16.9596C12.8947 17.1471 13 17.4015 13 17.6667C13 17.9319 12.8947 18.1862 12.7071 18.3738C12.5196 18.5613 12.2652 18.6667 12 18.6667C11.7348 18.6667 11.4804 18.5613 11.2929 18.3738C11.1054 18.1862 11 17.9319 11 17.6667C11 17.4015 11.1054 17.1471 11.2929 16.9596C11.4804 16.772 11.7348 16.6667 12 16.6667ZM16 20.6667C16 20.4015 16.1054 20.1471 16.2929 19.9596C16.4804 19.772 16.7348 19.6667 17 19.6667C17.2652 19.6667 17.5196 19.772 17.7071 19.9596C17.8947 20.1471 18 20.4015 18 20.6667C17.9987 20.7852 17.9762 20.9025 17.9334 21.013V21.0157C17.8517 21.2351 17.6955 21.4188 17.4921 21.5347C17.2888 21.6506 17.0511 21.6913 16.8207 21.6497C16.5904 21.6081 16.3819 21.4869 16.2319 21.3072C16.0819 21.1275 15.9998 20.9008 16 20.6667ZM18.3334 12C18.0681 12 17.8138 11.8946 17.6262 11.7071C17.4387 11.5196 17.3334 11.2652 17.3334 11C17.3334 10.7348 17.4387 10.4804 17.6262 10.2929C17.8138 10.1054 18.0681 10 18.3334 10C18.5986 10 18.8529 10.1054 19.0405 10.2929C19.228 10.4804 19.3334 10.7348 19.3334 11C19.3334 11.2652 19.228 11.5196 19.0405 11.7071C18.8529 11.8946 18.5986 12 18.3334 12ZM22.3094 9.20633C21.3888 9.36199 20.4865 9.61094 19.6164 9.94933C19.4617 9.75781 19.2663 9.60316 19.0443 9.4966C18.8224 9.39005 18.5795 9.33428 18.3334 9.33333C18.25 9.33533 18.1664 9.34367 18.084 9.35867C17.5898 8.0512 16.9003 6.82617 16.039 5.72533C17.2622 5.8632 18.4459 6.24175 19.5221 6.83919C20.5982 7.43663 21.5455 8.24113 22.3094 9.20633ZM8.02569 8.80633C8.0739 9.64351 8.19796 10.4746 8.39635 11.2893C8.08459 11.4983 7.85358 11.8075 7.74161 12.1657C7.62964 12.524 7.64342 12.9097 7.78069 13.259C7.0101 13.8528 6.30381 14.5257 5.67335 15.2667C5.67102 15.178 5.66669 15.0893 5.66669 15C5.66519 12.7159 6.50497 10.5113 8.02569 8.807V8.80633ZM5.75035 16.2303C6.44134 15.3305 7.24426 14.5224 8.13969 13.8257C8.29437 13.9861 8.47979 14.1137 8.68487 14.2009C8.88995 14.2882 9.1105 14.3332 9.33335 14.3333C9.39202 14.3307 9.45002 14.3247 9.50802 14.3157C9.89127 15.0702 10.3422 15.7884 10.8554 16.4613C10.6632 16.6412 10.5168 16.8645 10.4284 17.1124C10.3399 17.3603 10.3121 17.6258 10.347 17.8867C10.382 18.1476 10.4788 18.3964 10.6294 18.6123C10.7799 18.8282 10.9799 19.005 11.2127 19.128C10.85 20.3867 10.6662 21.6901 10.6667 23C10.6667 23.0927 10.6687 23.1773 10.6704 23.2643C9.34821 22.5699 8.21159 21.569 7.35562 20.3452C6.49965 19.1214 5.9492 17.7105 5.75035 16.2303ZM14.7967 24.328C15.4417 23.6964 16.0233 23.0032 16.5334 22.2583C16.6844 22.3057 16.8417 22.331 17 22.3333C17.2855 22.3326 17.566 22.2583 17.8144 22.1176C18.0628 21.977 18.2708 21.7747 18.4184 21.5303C19.3269 21.7708 20.2574 21.9189 21.1957 21.9723C19.491 23.4943 17.2853 24.3349 15 24.3333C14.9334 24.3333 14.8647 24.3297 14.7967 24.328ZM21.8524 21.328C20.7692 21.3163 19.6914 21.1726 18.643 20.9C18.6564 20.823 18.6644 20.745 18.6667 20.6667C18.6657 20.4215 18.6104 20.1797 18.5047 19.9585C18.399 19.7373 18.2455 19.5424 18.0554 19.3877C18.8973 17.219 19.1827 14.874 18.8854 12.5667C19.1284 12.4805 19.3482 12.3389 19.5271 12.1531C19.706 11.9673 19.8393 11.7425 19.9164 11.4963C21.4709 11.9237 22.9326 12.6357 24.2274 13.5963C24.4378 14.981 24.3336 16.3952 23.9225 17.7341C23.5113 19.0729 22.8037 20.3019 21.8524 21.3297V21.328Z" fill="white"/>
</g>
<defs>
<clipPath id="clip0_6800_13044">
<rect width="20" height="20" fill="white" transform="translate(5 5)"/>
</clipPath>
</defs>
</svg>
