<svg width="37" height="37" viewBox="0 0 37 37" fill="none" xmlns="http://www.w3.org/2000/svg">
<circle cx="18.5" cy="18.5" r="18" stroke="#ffffff"/>
<path d="M16.875 28C16.768 28.001 16.6619 27.9813 16.5628 27.9419C16.4637 27.9024 16.3737 27.8442 16.2981 27.7704C16.2224 27.6967 16.1626 27.609 16.1221 27.5125C16.0817 27.416 16.0614 27.3126 16.0625 27.2083C16.0625 27.194 16.0633 27.141 16.065 27.1268L16.8295 20.0833H12.8125C12.7055 20.0844 12.5994 20.0646 12.5003 20.0252C12.4013 19.9858 12.3113 19.9275 12.2356 19.8538C12.1599 19.7801 12.1001 19.6924 12.0597 19.5959C12.0192 19.4993 11.999 19.3959 12 19.2917C12 19.123 12.0594 18.9497 12.1634 18.8159L18.6495 9.33491C18.8144 9.11879 19.0582 9.00004 19.3125 9.00004C19.4195 8.99898 19.5256 9.01874 19.6247 9.05815C19.7238 9.09756 19.8138 9.15583 19.8894 9.22955C19.9651 9.30328 20.0249 9.39097 20.0654 9.4875C20.1058 9.58403 20.1261 9.68745 20.125 9.7917C20.125 9.80754 20.1242 9.87008 20.1226 9.88591L19.3629 16.125H24.1875C24.2945 16.124 24.4006 16.1437 24.4997 16.1831C24.5987 16.2225 24.6887 16.2808 24.7644 16.3545C24.8401 16.4282 24.8999 16.5159 24.9403 16.6125C24.9808 16.709 25.001 16.8124 25 16.9167C25 17.0837 24.9406 17.2571 24.8375 17.3917L17.5339 27.6714C17.4581 27.7725 17.3589 27.8549 17.2445 27.9119C17.1301 27.969 17.0035 27.9991 16.875 28Z" fill="#ffffff"/>
</svg>
